<svg xmlns="http://www.w3.org/2000/svg" width="25" height="25" viewBox="0 0 6.615 6.615"><path d="M5.15.53H5.14a.132.132 0 0 0-.08.037L.826 4.801a.132.132 0 0 0-.035.061L.527 5.921a.132.132 0 0 0 .127.164h5.293c.192.017.192-.281 0-.264H1.731c.031-.002.055-.028.076-.039L6.04 1.55a.132.132 0 0 0 0-.187L5.246.567A.132.132 0 0 0 5.15.529zm.002.319.608.607-4.113 4.113-.811.203.203-.81Z" color="#000" font-family="sans-serif" font-weight="400" overflow="visible" paint-order="markers fill stroke" style="line-height:normal;font-variant-ligatures:normal;font-variant-position:normal;font-variant-caps:normal;font-variant-numeric:normal;font-variant-alternates:normal;font-feature-settings:normal;text-indent:0;text-align:start;text-decoration-line:none;text-decoration-style:solid;text-decoration-color:#000;text-transform:none;text-orientation:mixed;shape-padding:0;isolation:auto;mix-blend-mode:normal"/></svg>